HIERARCHY
ROOT root
{
	OFFSET 0.000000 0.000000 0.000000
	CHANNELS 6 Xposition Yposition Zposition Zrotation Yrotation Xrotation
	JOINT lhip
	{
		OFFSET 0.058581 -0.082280 -0.017664
		CHANNELS 3 Zrotation Yrotation Xrotation
		JOINT lknee
		{
			OFFSET 0.043451 -0.386469 0.008037
			CHANNELS 3 Zrotation Yrotation Xrotation
			JOINT lankle
			{
				OFFSET -0.014790 -0.426874 -0.037428
				CHANNELS 3 Zrotation Yrotation Xrotation
				JOINT ltoe
				{
					OFFSET 0.041054 -0.060286 0.122042
					CHANNELS 3 Zrotation Yrotation Xrotation
					End Site
					{
						OFFSET 0.000000 0.000000 0.000000
					}
				}
			}
		}
	}
	JOINT rhip
	{
		OFFSET -0.060310 -0.090513 -0.013543
		CHANNELS 3 Zrotation Yrotation Xrotation
		JOINT rknee
		{
			OFFSET -0.043257 -0.383688 -0.004843
			CHANNELS 3 Zrotation Yrotation Xrotation
			JOINT rankle
			{
				OFFSET 0.019056 -0.420046 -0.034562
				CHANNELS 3 Zrotation Yrotation Xrotation
				JOINT rtoe
				{
					OFFSET -0.034840 -0.062106 0.130323
					CHANNELS 3 Zrotation Yrotation Xrotation
					End Site
					{
						OFFSET 0.000000 0.000000 0.000000
					}
				}
			}
		}
	}
	JOINT lowerback
	{
		OFFSET 0.004439 0.124404 -0.038385
		CHANNELS 3 Zrotation Yrotation Xrotation
		JOINT upperback
		{
			OFFSET 0.004488 0.137956 0.026820
			CHANNELS 3 Zrotation Yrotation Xrotation
			JOINT chest
			{
				OFFSET -0.002265 0.056032 0.002855
				CHANNELS 3 Zrotation Yrotation Xrotation
				JOINT lowerneck
				{
					OFFSET -0.013390 0.211636 -0.033468
					CHANNELS 3 Zrotation Yrotation Xrotation
					JOINT upperneck
					{
						OFFSET 0.010113 0.088937 0.050410
						CHANNELS 3 Zrotation Yrotation Xrotation
						End Site
						{
							OFFSET 0.000000 0.000000 0.000000
						}
					}
				}
				JOINT lclavicle
				{
					OFFSET 0.071702 0.114000 -0.018898
					CHANNELS 3 Zrotation Yrotation Xrotation
					JOINT lshoulder
					{
						OFFSET 0.122921 0.045205 -0.019046
						CHANNELS 3 Zrotation Yrotation Xrotation
						JOINT lelbow
						{
							OFFSET 0.255332 -0.015649 -0.022946
							CHANNELS 3 Zrotation Yrotation Xrotation
							JOINT lwrist
							{
								OFFSET 0.265709 0.012698 -0.007375
								CHANNELS 3 Zrotation Yrotation Xrotation
								End Site
								{
									OFFSET 0.000000 0.000000 0.000000
								}
							}
						}
					}
				}
				JOINT rclavicle
				{
					OFFSET -0.082954 0.112472 -0.023707
					CHANNELS 3 Zrotation Yrotation Xrotation
					JOINT rshoulder
					{
						OFFSET -0.113228 0.046853 -0.008472
						CHANNELS 3 Zrotation Yrotation Xrotation
						JOINT relbow
						{
							OFFSET -0.260127 -0.014369 -0.031269
							CHANNELS 3 Zrotation Yrotation Xrotation
							JOINT rwrist
							{
								OFFSET -0.269108 0.006794 -0.006027
								CHANNELS 3 Zrotation Yrotation Xrotation
								End Site
								{
									OFFSET 0.000000 0.000000 0.000000
								}
							}
						}
					}
				}
			}
		}
	}
}
MOTION
Frames: 13
Frame Time: 0.033333
-0.646025 0.740002 0.989446 81.743139 -1.777646 84.609598 0.052296 -1.767179 -6.940207 -3.582532 -3.594770 5.012679 5.214201 9.141440 0.039655 0.000000 -0.000000 0.000000 -2.185631 0.581629 2.450905 5.305439 11.176987 44.662997 8.652677 -1.286690 -3.053800 0.000000 -0.000000 0.000000 -3.759356 3.127810 8.124110 1.763064 -1.280334 3.156811 -1.212230 -1.366587 2.422441 3.971483 5.996519 -6.813539 -2.654690 -0.306233 16.080876 -32.682478 1.610308 1.348762 -49.983900 -6.376143 8.513167 11.231517 -21.225236 2.167506 -2.285627 -3.057634 2.781113 33.920731 2.279446 1.434382 47.362461 4.199016 18.903816 -11.057921 19.288526 -0.253344 5.181318 3.998980 6.931442 
-0.627763 0.742110 0.992063 82.478962 -1.243505 84.466281 0.252313 -1.252150 -5.076576 -3.770696 -4.640944 3.949778 5.057159 8.963279 -0.679457 0.000000 -0.000000 0.000000 -2.170552 0.103129 -0.155808 3.161804 6.910290 45.632520 5.785026 -5.779608 -6.417937 0.000000 -0.000000 0.000000 -3.661734 1.824578 8.216887 1.891944 -1.380503 2.883880 -0.771480 -2.066639 3.325451 4.426994 6.605693 -6.694000 -2.967415 0.416860 16.754918 -32.770772 1.921797 1.232151 -49.402172 -7.195715 8.108281 11.188755 -22.471658 1.929570 -1.200006 -3.317993 1.669965 33.933281 2.890966 2.029507 47.253401 4.882865 19.274512 -11.316265 19.481851 -0.190133 4.653883 3.889776 7.264625 
-0.611503 0.744965 0.994532 82.924260 -1.196405 85.397546 -0.198463 -1.152047 -4.313663 -3.413592 -5.033110 2.455419 5.643900 9.516333 -0.449522 0.000000 -0.000000 0.000000 -3.177703 -0.060892 -3.590668 -0.898411 0.614913 44.604172 3.463737 -8.016945 -7.851296 0.000000 -0.000000 0.000000 -2.995815 2.104406 6.641316 1.367925 -3.037846 9.787312 -0.770097 -1.454639 -4.229615 2.575819 2.454837 -5.452210 1.085883 3.506905 18.204235 -32.638798 -0.024430 0.768992 -48.981940 -4.355436 10.638658 14.362546 -22.976076 -4.145327 -2.130965 -6.991658 6.486495 35.507688 4.017042 2.874214 46.389959 1.909010 15.891332 -12.109501 20.613765 -1.756698 5.014810 7.585977 11.783991 
-0.592866 0.746670 0.995683 83.350187 -0.697338 85.305653 -0.038233 -0.031162 -2.911879 -3.273035 -5.809303 2.275731 5.215077 9.181710 -1.929866 0.000000 -0.000000 0.000000 -3.397971 -1.393487 -5.416248 -3.533627 -3.052644 40.204370 1.990881 -10.907894 -10.225129 0.000000 -0.000000 0.000000 -2.812769 1.905514 6.617137 1.926216 -2.681464 10.501619 -0.417305 -1.491537 -4.164642 2.805282 2.402339 -4.378959 1.366328 2.247567 17.710415 -31.992343 -1.092136 -0.098361 -49.188515 -5.497735 11.307074 14.578564 -23.451619 -5.256426 -2.007816 -7.340125 7.186989 35.064823 4.076892 2.367440 46.700796 1.674945 14.946560 -12.475320 21.573852 -2.555198 4.588345 7.963494 11.577741 
-0.583166 0.746919 0.996634 83.677683 -0.536943 85.288074 0.013216 0.529869 -2.349648 -3.247446 -6.235679 2.445402 5.163566 8.989688 -2.570719 0.000000 -0.000000 0.000000 -3.473239 -1.898483 -6.145774 -3.369697 -3.489735 36.214690 1.426048 -11.368471 -11.195211 0.000000 -0.000000 0.000000 -2.516468 1.888423 6.942317 2.022406 -2.577592 9.941439 -0.368155 -1.255189 -3.823291 2.912080 2.099337 -3.754175 1.425396 1.797792 18.320787 -31.914097 -1.530696 -0.641663 -48.612096 -6.595735 11.758559 13.633083 -23.168253 -4.845515 -2.107622 -6.956653 7.392077 35.217628 3.686554 2.010558 46.681016 1.500925 14.938698 -12.879908 22.388973 -2.885995 4.708111 7.865523 11.827273 
-0.570914 0.745117 0.996440 83.664690 -0.443922 85.254372 0.333832 0.582518 -1.515497 -3.509217 -5.989392 2.459815 4.951969 8.980716 -3.496553 0.000000 -0.000000 0.000000 -3.395601 -1.778220 -6.533864 -1.963553 -1.903142 29.463391 2.139702 -10.109049 -12.013804 0.000000 -0.000000 0.000000 -2.287935 2.148301 7.305928 2.069256 -2.351835 9.132276 -0.284012 -0.959203 -3.860640 3.137593 1.758995 -2.928420 1.827327 1.800348 20.482866 -31.620015 -1.430029 -1.222945 -48.339627 -7.874473 12.300189 13.551447 -23.385088 -4.263395 -0.672780 -7.464530 7.015643 35.239004 2.833863 2.166741 46.804257 2.213197 15.182912 -12.250364 22.593785 -2.442741 4.011079 8.021619 11.769009 
-0.560477 0.743192 0.995337 84.090968 -0.518515 85.053839 0.338325 0.453701 -1.039287 -3.691509 -5.918906 3.173325 4.957584 8.856853 -4.162687 0.000000 -0.000000 0.000000 -3.543694 -1.676445 -6.092780 -1.048753 0.240316 22.079050 1.666684 -8.083486 -11.127540 0.000000 -0.000000 0.000000 -2.033638 2.426130 7.245237 2.094707 -2.502667 9.024706 -0.187320 -0.646726 -3.967037 2.872214 1.482831 -1.297171 2.455784 1.895742 21.379224 -31.552531 -1.961672 -1.188720 -48.092514 -9.063321 12.423734 14.023760 -23.751143 -4.973878 -0.044616 -7.602629 6.771630 35.202866 3.055820 2.824355 46.848713 2.834177 15.243715 -12.247849 22.714054 -2.619301 4.172037 8.124355 11.930016 
-0.550725 0.741248 0.994409 85.069254 -1.329011 84.758857 -0.348038 0.823695 -0.354028 -4.068520 -6.304582 3.440486 4.602560 8.296705 -4.660816 0.000000 -0.000000 0.000000 -4.576142 -3.201367 -5.890587 -1.578725 -0.455365 19.238628 -0.048618 -8.764292 -10.042675 0.000000 -0.000000 0.000000 -2.671762 2.543138 6.776649 2.080375 -2.573202 9.295482 -0.131625 -0.576516 -4.143081 3.033962 0.874187 0.063706 3.064613 1.590062 22.662199 -31.977300 -2.230635 -0.547124 -47.147158 -10.598939 12.122051 14.473867 -24.357631 -5.855232 -0.890412 -7.927380 7.418448 35.585778 3.631159 3.039335 46.517586 2.953240 15.305983 -11.922694 22.532643 -2.226963 5.037682 8.323572 12.712157 
-0.543028 0.738544 0.994027 86.540679 -1.529227 84.334374 -0.361651 1.721761 0.065573 -4.377718 -7.792356 4.141848 4.271617 7.485997 -5.302334 0.000000 -0.000000 0.000000 -5.057011 -3.619678 -5.141232 -1.481031 -2.361184 20.821838 0.654219 -7.810478 -10.564375 0.000000 -0.000000 0.000000 -2.516946 2.157035 6.748724 2.075178 -2.479572 8.773575 -0.236475 -0.860594 -4.044484 3.599428 0.150614 1.130348 3.159380 1.278774 24.880972 -32.315474 -2.609007 -0.014540 -46.425969 -11.066719 11.304175 14.226764 -25.865832 -6.261072 1.486105 -7.738538 5.783986 35.754575 3.871825 3.286333 46.203234 3.497674 15.374570 -11.538772 22.567683 -1.316334 4.920011 7.984114 13.101156 
-0.531811 0.732265 0.993623 86.463481 -1.199971 83.077264 -0.058391 -0.310067 2.361313 -3.669107 -6.916592 3.874008 4.679418 8.436686 -5.880460 0.000000 -0.000000 0.000000 -4.348505 -2.875817 -2.191818 -1.385312 -0.955939 19.299274 -0.191266 -8.294355 -10.946808 0.000000 -0.000000 0.000000 -1.258211 2.386972 6.524169 1.675742 -2.537551 9.545947 -0.844458 -0.314271 -4.023895 4.309575 -0.709555 2.150100 3.491974 0.173334 26.144819 -31.860480 -1.849462 -0.217750 -47.024360 -11.888482 10.707991 15.141766 -27.913252 -6.087502 -0.093291 -7.829337 6.231263 35.254491 4.285292 3.102757 46.864837 4.082774 15.844888 -11.701440 22.613135 -0.955472 5.728777 8.136562 13.033436 
-0.525379 0.728242 0.992563 87.011662 -1.322117 83.221387 0.126021 -0.658654 2.473644 -3.789237 -6.680127 4.070740 4.532280 8.110464 -6.291608 0.000000 -0.000000 0.000000 -4.704168 -3.568973 -0.802216 -1.117646 0.106233 17.459213 0.416740 -7.627709 -10.855061 0.000000 -0.000000 0.000000 -1.124205 2.568620 4.854348 1.764315 -3.019600 10.865883 -1.082001 0.049622 -4.466561 4.843271 -1.204920 3.232289 3.508014 -0.813265 26.811053 -31.455239 -1.665638 -0.450584 -47.592743 -11.823363 11.098384 14.976663 -28.989008 -5.943498 0.660802 -8.379643 6.484134 34.856340 4.324648 3.667193 47.010514 4.852598 15.575476 -12.198715 23.222920 -1.889358 4.588777 8.096895 13.196833 
-0.518681 0.724063 0.991617 87.542041 -1.520348 83.353483 0.109626 -0.846880 2.570863 -3.681894 -6.772812 4.129082 4.031800 7.597866 -6.663417 0.000000 -0.000000 0.000000 -5.205199 -3.679362 1.188028 -0.696594 -0.082244 14.766620 0.756933 -6.671497 -11.196745 0.000000 -0.000000 0.000000 -0.983982 2.576959 3.740174 1.786953 -3.393432 11.526372 -1.261346 0.538897 -5.182053 5.183320 -1.725800 4.047675 3.564746 -1.547367 27.466927 -30.929143 -1.186980 -0.367312 -48.661594 -11.458045 11.126963 14.430683 -29.842536 -5.439074 0.956586 -8.285413 6.114090 34.410813 3.981569 3.717397 46.973008 5.104425 15.161453 -12.432639 24.023475 -2.038887 3.993535 8.417295 13.133285 
-0.513738 0.718994 0.990344 87.682529 -1.758019 83.256930 0.127332 -1.035488 3.030931 -3.613713 -6.354706 4.033780 3.839617 7.261167 -6.801610 0.000000 -0.000000 0.000000 -5.209961 -3.813328 3.277585 -0.667723 -0.276026 11.769125 0.758044 -6.853131 -11.435265 0.000000 -0.000000 0.000000 -0.765703 2.674313 2.941567 1.638539 -3.455755 11.685435 -1.420328 0.735746 -5.078734 5.546243 -1.866432 4.447997 3.441250 -2.255722 28.482196 -30.624897 -0.441503 -0.307564 -49.163402 -11.728447 10.997956 13.611679 -30.299949 -4.033390 0.492092 -8.424407 6.107391 34.235282 3.936801 3.993058 46.907158 6.059854 14.939348 -12.714359 24.023668 -2.847387 3.537285 8.488020 12.347187 
